<?xml version="1.0" standalone="no"?>
<!DOCTYPE svg PUBLIC "-//W3C//DTD SVG 20010904//EN"
 "http://www.w3.org/TR/2001/REC-SVG-20010904/DTD/svg10.dtd">
<svg version="1.0" xmlns="http://www.w3.org/2000/svg"
 width="711.000000pt" height="711.000000pt" viewBox="0 0 711.000000 711.000000"
 preserveAspectRatio="xMidYMid meet">
<metadata>
Created by potrace 1.14, written by Peter Selinger 2001-2017
</metadata>
<g transform="translate(0.000000,711.000000) scale(0.100000,-0.100000)"
fill="#000000" stroke="none">
<path d="M1848 6509 c-273 -23 -547 -133 -760 -305 -208 -168 -385 -446 -452
-709 -41 -164 -41 -157 -41 -1960 l0 -1730 23 -105 c65 -296 188 -527 382
-720 188 -187 391 -293 691 -363 l94 -21 1670 -4 c1116 -2 1703 1 1768 8 582
62 1002 381 1171 890 49 148 67 243 77 415 12 199 1 3322 -12 3430 -23 183
-86 366 -179 520 -213 352 -524 558 -975 646 -72 14 -3299 22 -3457 8z m1733
-208 c27 -28 29 -34 29 -114 l0 -85 33 -7 c71 -16 986 -324 1037 -350 110 -56
320 -216 478 -365 l85 -81 157 155 c168 168 180 175 240 139 33 -19 50 -52 50
-96 0 -27 -19 -51 -150 -180 -82 -82 -150 -150 -150 -152 0 -2 18 -30 41 -62
54 -77 167 -268 219 -372 60 -118 103 -251 165 -506 44 -181 135 -579 135
-592 0 -1 56 -3 124 -3 l124 0 26 -31 c30 -35 33 -67 11 -109 -20 -38 -64 -50
-188 -50 -69 0 -99 -4 -102 -12 -2 -7 -31 -137 -65 -288 -120 -533 -133 -580
-200 -725 -47 -103 -177 -318 -251 -416 l-57 -76 124 -124 c155 -153 194 -203
194 -241 0 -43 -51 -88 -99 -88 -33 0 -47 11 -188 155 -84 85 -158 155 -164
155 -7 0 -48 -35 -93 -79 -208 -201 -332 -298 -467 -367 -94 -47 -370 -138
-754 -249 -88 -25 -197 -58 -242 -72 l-83 -26 0 -67 c0 -73 -18 -104 -65 -116
-70 -17 -108 21 -115 114 l-5 67 -110 37 c-60 20 -220 69 -355 109 -464 136
-616 196 -750 295 -84 61 -247 204 -330 288 -67 69 -80 75 -102 52 -7 -8 -75
-77 -152 -155 -123 -125 -143 -141 -172 -141 -46 0 -94 49 -94 97 0 32 14 49
147 187 82 83 152 154 157 158 5 3 -13 37 -41 75 -126 171 -239 369 -297 518
-36 94 -101 350 -182 717 -53 239 -50 234 -126 222 -57 -10 -143 4 -167 27
-39 37 -40 103 0 137 15 13 45 18 130 22 l111 5 38 185 c47 225 129 565 165
680 50 160 177 405 300 580 30 44 55 82 55 86 0 3 -65 73 -145 154 -138 141
-145 150 -145 188 0 33 6 45 35 71 24 21 46 31 68 31 28 0 49 -17 181 -154
l148 -155 122 110 c166 148 343 281 441 328 44 22 215 85 380 140 165 56 386
131 492 167 l191 66 4 85 c3 78 5 87 31 109 41 35 99 33 138 -5z"/>
<path d="M3370 5898 c-14 -6 -189 -66 -390 -133 -447 -151 -518 -177 -596
-220 -98 -55 -263 -188 -414 -333 l-55 -52 177 -177 176 -176 184 173 c100 95
195 192 210 216 32 50 38 54 223 127 132 52 193 78 425 176 l95 40 3 185 c1
102 -1 186 -5 185 -5 0 -19 -5 -33 -11z"/>
<path d="M3612 5719 l3 -191 105 -42 c58 -24 200 -80 315 -125 116 -45 230
-89 255 -99 30 -12 52 -29 65 -52 24 -40 64 -82 259 -264 l148 -139 175 174
174 174 -117 113 c-140 135 -301 258 -399 306 -70 34 -299 113 -715 246 -124
40 -235 76 -248 81 l-22 9 2 -191z"/>
<path d="M3190 5244 c-113 -46 -240 -95 -282 -109 -56 -19 -81 -33 -94 -53 -9
-15 -107 -115 -217 -222 l-200 -195 108 -113 c69 -72 126 -122 157 -138 73
-37 82 -57 88 -203 l5 -126 90 -32 c50 -18 111 -39 137 -47 l47 -15 31 57 30
56 -89 91 c-50 49 -95 103 -100 118 -6 16 -11 110 -11 217 0 181 1 190 23 215
33 39 94 45 133 12 l29 -25 3 -181 3 -180 68 -61 c38 -33 71 -60 74 -60 3 0
28 16 57 35 68 46 136 65 232 65 91 0 178 -25 245 -71 l43 -30 70 62 70 62 0
173 c0 165 1 174 23 199 15 18 36 28 64 32 37 5 45 2 73 -25 l30 -30 0 -197
c0 -160 -3 -203 -16 -231 -9 -19 -52 -66 -95 -105 -44 -39 -79 -77 -79 -85 0
-23 54 -114 65 -110 6 2 67 23 136 47 l127 43 4 120 c5 147 18 177 86 210 46
22 262 230 262 253 0 11 -187 195 -308 303 -39 35 -83 81 -96 101 -21 31 -37
40 -118 68 -51 18 -180 67 -286 108 -106 42 -196 72 -200 68 -4 -4 -7 -173 -7
-376 0 -361 0 -369 -21 -389 -12 -12 -39 -24 -61 -27 -35 -5 -45 -1 -74 25
l-34 30 -3 376 c-2 207 -6 376 -10 375 -4 -1 -99 -39 -212 -85z"/>
<path d="M1748 4979 c-68 -86 -87 -116 -157 -250 -85 -163 -119 -252 -165
-437 -35 -136 -128 -552 -140 -624 l-7 -38 216 0 c118 0 215 4 215 8 0 4 24
138 54 297 30 160 57 315 61 345 9 71 18 84 146 215 59 61 119 125 134 143
l28 33 -175 176 -175 175 -35 -43z"/>
<path d="M5071 4845 c-95 -96 -171 -179 -169 -184 1 -5 62 -70 134 -143 72
-73 138 -144 146 -158 9 -14 21 -63 27 -110 7 -47 30 -179 52 -295 22 -115 45
-236 51 -267 l11 -58 213 0 c200 0 214 1 214 18 0 10 -25 128 -55 262 -129
569 -145 621 -258 827 -73 134 -171 283 -185 283 -5 0 -86 -79 -181 -175z"/>
<path d="M2137 4399 c-108 -114 -127 -139 -132 -174 -4 -22 -22 -125 -41 -230
-18 -104 -40 -229 -47 -277 l-14 -88 259 0 c205 0 258 3 252 13 -5 6 -22 32
-40 57 -36 51 -49 81 -134 304 -33 87 -60 170 -60 183 0 40 51 83 98 83 64 0
78 -19 133 -185 99 -298 162 -385 309 -429 30 -9 89 -16 131 -16 l78 0 6 35
c3 19 7 52 11 73 3 20 7 44 10 53 3 12 -27 27 -143 68 -229 81 -237 90 -248
268 l-7 112 -62 56 c-33 31 -100 95 -147 142 l-86 85 -126 -133z"/>
<path d="M4610 4384 l-150 -150 0 -109 c0 -169 -6 -175 -255 -260 -77 -27
-141 -49 -143 -51 -2 -1 1 -19 6 -40 6 -22 13 -61 17 -88 l7 -49 91 5 c123 7
192 34 260 101 69 68 105 140 167 328 56 171 75 199 136 199 46 0 70 -14 90
-51 19 -38 19 -41 -62 -253 -81 -209 -95 -237 -149 -295 l-43 -46 273 3 274 3
-6 37 c-3 20 -21 120 -40 222 -19 102 -42 228 -51 281 l-17 96 -127 134 -128
133 -150 -150z"/>
<path d="M2785 3449 c-123 -18 -239 -106 -295 -223 -15 -34 -51 -137 -79 -231
-56 -191 -72 -215 -141 -215 -48 0 -90 44 -90 94 0 31 115 389 140 437 7 13
38 51 69 83 31 33 48 56 38 53 -10 -4 -134 -7 -274 -7 l-255 0 5 -22 c3 -13
26 -142 52 -288 26 -146 52 -281 56 -300 7 -26 41 -68 130 -157 66 -68 124
-123 127 -123 4 0 43 35 88 78 44 42 108 103 141 134 l60 57 7 132 c4 72 12
143 17 158 22 57 63 82 256 157 65 24 119 46 120 48 2 2 -2 35 -8 75 l-12 71
-46 -1 c-25 -1 -73 -5 -106 -10z"/>
<path d="M4087 3443 c-3 -10 -8 -36 -12 -58 -3 -22 -8 -47 -11 -56 -4 -13 17
-25 93 -54 165 -64 240 -103 269 -140 24 -32 27 -46 34 -168 7 -126 17 -171
39 -179 6 -1 64 -56 129 -120 66 -65 124 -118 129 -118 4 0 65 57 135 128
l127 127 11 80 c7 44 32 185 56 314 24 129 43 235 41 237 -3 3 -333 8 -433 6
l-92 -2 45 -47 c59 -64 65 -76 134 -286 76 -233 79 -253 44 -295 -22 -27 -34
-32 -69 -32 -65 0 -80 24 -132 201 -101 350 -201 453 -456 474 -68 6 -77 5
-81 -12z"/>
<path d="M1477 3442 l-197 -2 5 -23 c3 -12 14 -65 24 -117 33 -159 141 -608
167 -690 42 -134 193 -411 273 -501 l39 -44 53 50 c30 28 108 105 174 173
l119 122 -146 148 c-140 141 -146 149 -153 197 -9 62 -40 229 -91 487 -29 145
-43 198 -54 200 -8 2 -104 2 -213 0z"/>
<path d="M5311 3388 c-28 -139 -84 -446 -102 -558 l-20 -125 -147 -148 -147
-147 172 -172 172 -172 26 24 c34 32 152 214 213 330 80 151 101 225 228 805
24 110 44 203 44 208 0 4 -96 7 -214 7 l-215 0 -10 -52z"/>
<path d="M2906 3099 c-71 -27 -135 -54 -142 -60 -10 -8 -14 -41 -14 -123 -1
-154 -8 -180 -67 -229 -26 -23 -102 -94 -167 -158 l-120 -117 26 -31 c15 -17
104 -105 200 -196 102 -98 182 -183 194 -207 19 -38 28 -43 120 -78 54 -21
178 -68 274 -105 96 -37 183 -69 193 -72 16 -5 17 21 17 440 l0 445 26 31 c35
41 89 43 128 5 l26 -27 0 -448 c0 -247 3 -449 6 -449 3 0 33 11 67 24 34 14
145 56 247 94 276 104 269 101 286 136 9 17 109 122 223 233 l206 202 -95 93
c-52 52 -128 123 -168 158 -41 35 -77 71 -82 80 -5 9 -12 79 -16 157 l-7 142
-49 21 c-28 12 -93 36 -144 55 l-94 33 -30 -45 c-17 -24 -30 -50 -30 -57 0 -7
42 -57 93 -112 52 -54 99 -109 105 -121 8 -15 12 -94 12 -243 l0 -222 -29 -29
c-39 -39 -80 -39 -123 0 l-33 29 -3 204 -3 205 -83 82 -83 83 -39 -20 c-135
-69 -312 -70 -443 -3 l-44 23 -70 -69 c-39 -37 -76 -73 -84 -80 -10 -9 -13
-55 -13 -196 0 -101 -3 -199 -6 -217 -14 -69 -113 -90 -161 -35 -22 25 -23 32
-23 243 1 147 5 226 13 244 7 15 56 72 110 128 l99 102 -24 36 c-14 21 -27 45
-31 55 -3 9 -10 17 -14 16 -4 0 -66 -23 -137 -50z"/>
<path d="M2090 2104 c-93 -92 -170 -173 -170 -179 0 -16 289 -283 381 -352 41
-31 106 -70 144 -88 79 -36 283 -105 485 -164 74 -21 213 -62 307 -90 95 -28
175 -51 178 -51 3 0 4 77 3 172 l-3 172 -110 43 c-108 43 -161 63 -422 162
-73 28 -144 58 -159 67 -14 10 -39 41 -55 70 -17 29 -51 71 -77 95 -26 23
-103 96 -172 163 -69 67 -133 127 -142 135 -16 12 -36 -5 -188 -155z"/>
<path d="M4568 2087 c-103 -100 -198 -200 -211 -222 -13 -22 -34 -48 -45 -58
-11 -10 -110 -52 -219 -93 -188 -71 -311 -118 -433 -168 l-55 -22 -3 -172 c-1
-95 1 -172 4 -172 16 0 631 183 771 229 84 28 181 65 217 82 95 46 213 140
376 297 l145 141 -171 170 c-93 94 -174 171 -180 171 -5 -1 -93 -83 -196 -183z"/>
</g>
</svg>
